<svg xmlns="http://www.w3.org/2000/svg" xmlns:xlink="http://www.w3.org/1999/xlink" contentStyleType="text/css" data-diagram-type="CLASS" height="871px" preserveAspectRatio="none" style="width:748px;height:871px;background:#EEEBDC;" version="1.1" viewBox="0 0 748 871" width="748px" zoomAndPan="magnify"><defs><filter height="300%" id="f12lyy51v943j1" width="300%" x="-1" y="-1"><feGaussianBlur result="blurOut" stdDeviation="2"/><feColorMatrix in="blurOut" result="blurOut2" type="matrix" values="0 0 0 0 0 0 0 0 0 0 0 0 0 0 0 0 0 0 .4 0"/><feOffset dx="4" dy="4" in="blurOut2" result="blurOut3"/><feBlend in="SourceGraphic" in2="blurOut3" mode="normal"/></filter></defs><g><rect fill="#EEEBDC" height="871" style="stroke:none;stroke-width:1;" width="748" x="0" y="0"/><!--class User--><g class="entity" data-entity="User" data-source-line="6" data-uid="ent0002" id="entity_User"><rect fill="#FEFECE" filter="url(#f12lyy51v943j1)" height="276.1563" style="stroke:#A80036;stroke-width:1;" width="292.6904" x="7" y="298.75"/><ellipse cx="133.1401" cy="314.75" fill="#ADD1B2" rx="11" ry="11" style="stroke:#A80036;stroke-width:1;"/><path d="M133.3433,321.3906 Q132.8745,321.3906 132.4058,321.2969 Q131.9526,321.2031 131.5464,320.9688 Q131.1401,320.7344 130.8276,320.375 Q130.5151,320.0156 130.3276,319.5938 Q130.1401,319.1563 130.062,318.6875 Q129.9995,318.2188 129.9995,317.7656 L129.9995,312.2344 Q129.9995,311.7813 130.062,311.3125 Q130.1401,310.8438 130.3276,310.4219 Q130.5151,310 130.8276,309.6406 Q131.1401,309.2656 131.5464,309.0469 Q131.9526,308.8125 132.4058,308.7188 Q132.8745,308.625 133.3433,308.625 Q133.7808,308.625 134.2183,308.7031 Q134.6558,308.7656 135.0464,308.9688 Q135.437,309.1563 135.7495,309.4844 Q136.062,309.7969 136.2651,310.1875 Q136.4683,310.5625 136.562,311 Q136.6714,311.4219 136.6714,311.8594 L136.6714,311.9688 L134.7808,311.9688 L134.7808,311.9219 Q134.7808,311.6094 134.687,311.3125 Q134.6089,311 134.4214,310.75 Q134.2339,310.5 133.937,310.375 Q133.6401,310.25 133.3433,310.25 Q133.1089,310.25 132.8745,310.3281 Q132.6558,310.3906 132.4839,310.5469 Q132.312,310.6875 132.187,310.8906 Q132.0776,311.0938 132.0151,311.3281 Q131.9526,311.5469 131.9214,311.7813 Q131.8901,312 131.8901,312.2344 L131.8901,317.7656 Q131.8901,318 131.9214,318.2344 Q131.9526,318.4688 132.0151,318.6875 Q132.0776,318.9063 132.187,319.1094 Q132.312,319.3125 132.4839,319.4688 Q132.6558,319.625 132.8745,319.6875 Q133.1089,319.75 133.3433,319.75 Q133.6401,319.75 133.937,319.625 Q134.2339,319.5 134.4214,319.25 Q134.6089,319 134.687,318.7031 Q134.7808,318.3906 134.7808,318.0938 L134.7808,318.0313 L136.6714,318.0313 L136.6714,318.1406 Q136.6714,318.5781 136.562,319.0156 Q136.4683,319.4531 136.2651,319.8438 Q136.062,320.2188 135.7495,320.5313 Q135.437,320.8438 135.0464,321.0469 Q134.6558,321.2344 134.2183,321.3125 Q133.7808,321.3906 133.3433,321.3906 Z " fill="#000000"/><text fill="#000000" font-family="sans-serif" font-size="14" lengthAdjust="spacing" textLength="31.9102" x="153.6401" y="319.5967">User</text><line style="stroke:#A80036;stroke-width:1;" x1="8" x2="298.6904" y1="330.75" y2="330.75"/><rect fill="none" height="6" style="stroke:#C82930;stroke-width:1;" width="6" x="15" y="341.3984"/><text fill="#000000" font-family="sans-serif" font-size="14" lengthAdjust="spacing" textLength="13.0156" x="27" y="347.7451">Id</text><ellipse cx="18" cy="360.6953" fill="none" rx="3" ry="3" style="stroke:#038048;stroke-width:1;"/><text fill="#000000" font-family="sans-serif" font-size="14" lengthAdjust="spacing" textLength="132.583" x="27" y="364.042">NotifyOnExpiration</text><ellipse cx="18" cy="376.9922" fill="none" rx="3" ry="3" style="stroke:#038048;stroke-width:1;"/><text fill="#000000" font-family="sans-serif" font-size="14" lengthAdjust="spacing" textLength="123.6484" x="27" y="380.3389">NotifyOnDeadline</text><ellipse cx="18" cy="393.2891" fill="none" rx="3" ry="3" style="stroke:#038048;stroke-width:1;"/><text fill="#000000" font-family="sans-serif" font-size="14" lengthAdjust="spacing" textLength="130.8262" x="27" y="396.6357">NotifyOnThreshold</text><ellipse cx="18" cy="409.5859" fill="none" rx="3" ry="3" style="stroke:#038048;stroke-width:1;"/><text fill="#000000" font-family="sans-serif" font-size="14" lengthAdjust="spacing" textLength="211.4355" x="27" y="412.9326">NotifyOnInsufficientResources</text><line style="stroke:#A80036;stroke-width:1;" x1="8" x2="298.6904" y1="420.2344" y2="420.2344"/><ellipse cx="18" cy="433.8828" fill="#84BE84" rx="3" ry="3" style="stroke:#038048;stroke-width:1;"/><text fill="#000000" font-family="sans-serif" font-size="14" lengthAdjust="spacing" textLength="69.1934" x="27" y="437.2295">Register()</text><ellipse cx="18" cy="450.1797" fill="#84BE84" rx="3" ry="3" style="stroke:#038048;stroke-width:1;"/><text fill="#000000" font-family="sans-serif" font-size="14" lengthAdjust="spacing" textLength="48.9385" x="27" y="453.5264">Login()</text><ellipse cx="18" cy="466.4766" fill="#84BE84" rx="3" ry="3" style="stroke:#038048;stroke-width:1;"/><text fill="#000000" font-family="sans-serif" font-size="14" lengthAdjust="spacing" textLength="59.1035" x="27" y="469.8232">Logout()</text><ellipse cx="18" cy="482.7734" fill="#84BE84" rx="3" ry="3" style="stroke:#038048;stroke-width:1;"/><text fill="#000000" font-family="sans-serif" font-size="14" lengthAdjust="spacing" textLength="130.792" x="27" y="486.1201">ChangePassword()</text><text fill="#000000" font-family="sans-serif" font-size="14" lengthAdjust="spacing" textLength="4.4502" x="27" y="502.417">&#160;</text><ellipse cx="18" cy="515.3672" fill="#84BE84" rx="3" ry="3" style="stroke:#038048;stroke-width:1;"/><text fill="#000000" font-family="sans-serif" font-size="14" lengthAdjust="spacing" textLength="187.8379" x="27" y="518.7139">toggleNotifyOnExpiration()</text><ellipse cx="18" cy="531.6641" fill="#84BE84" rx="3" ry="3" style="stroke:#038048;stroke-width:1;"/><text fill="#000000" font-family="sans-serif" font-size="14" lengthAdjust="spacing" textLength="178.9033" x="27" y="535.0107">toggleNotifyOnDeadline()</text><ellipse cx="18" cy="547.9609" fill="#84BE84" rx="3" ry="3" style="stroke:#038048;stroke-width:1;"/><text fill="#000000" font-family="sans-serif" font-size="14" lengthAdjust="spacing" textLength="186.0811" x="27" y="551.3076">toggleNotifyOnThreshold()</text><ellipse cx="18" cy="564.2578" fill="#84BE84" rx="3" ry="3" style="stroke:#038048;stroke-width:1;"/><text fill="#000000" font-family="sans-serif" font-size="14" lengthAdjust="spacing" textLength="266.6904" x="27" y="567.6045">toggleNotifyOnInsufficientResources()</text></g><!--class Tag--><g class="entity" data-entity="Tag" data-source-line="24" data-uid="ent0003" id="entity_Tag"><rect fill="#FEFECE" filter="url(#f12lyy51v943j1)" height="129.4844" style="stroke:#A80036;stroke-width:1;" width="200.7676" x="446.48" y="400.08"/><ellipse cx="529.605" cy="416.08" fill="#ADD1B2" rx="11" ry="11" style="stroke:#A80036;stroke-width:1;"/><path d="M529.8081,422.7206 Q529.3394,422.7206 528.8706,422.6269 Q528.4175,422.5331 528.0113,422.2987 Q527.605,422.0644 527.2925,421.705 Q526.98,421.3456 526.7925,420.9237 Q526.605,420.4862 526.5269,420.0175 Q526.4644,419.5487 526.4644,419.0956 L526.4644,413.5644 Q526.4644,413.1112 526.5269,412.6425 Q526.605,412.1737 526.7925,411.7519 Q526.98,411.33 527.2925,410.9706 Q527.605,410.5956 528.0113,410.3769 Q528.4175,410.1425 528.8706,410.0487 Q529.3394,409.955 529.8081,409.955 Q530.2456,409.955 530.6831,410.0331 Q531.1206,410.0956 531.5113,410.2987 Q531.9019,410.4862 532.2144,410.8144 Q532.5269,411.1269 532.73,411.5175 Q532.9331,411.8925 533.0269,412.33 Q533.1363,412.7519 533.1363,413.1894 L533.1363,413.2987 L531.2456,413.2987 L531.2456,413.2519 Q531.2456,412.9394 531.1519,412.6425 Q531.0738,412.33 530.8863,412.08 Q530.6988,411.83 530.4019,411.705 Q530.105,411.58 529.8081,411.58 Q529.5738,411.58 529.3394,411.6581 Q529.1206,411.7206 528.9488,411.8769 Q528.7769,412.0175 528.6519,412.2206 Q528.5425,412.4237 528.48,412.6581 Q528.4175,412.8769 528.3863,413.1112 Q528.355,413.33 528.355,413.5644 L528.355,419.0956 Q528.355,419.33 528.3863,419.5644 Q528.4175,419.7987 528.48,420.0175 Q528.5425,420.2362 528.6519,420.4394 Q528.7769,420.6425 528.9488,420.7987 Q529.1206,420.955 529.3394,421.0175 Q529.5738,421.08 529.8081,421.08 Q530.105,421.08 530.4019,420.955 Q530.6988,420.83 530.8863,420.58 Q531.0738,420.33 531.1519,420.0331 Q531.2456,419.7206 531.2456,419.4237 L531.2456,419.3612 L533.1363,419.3612 L533.1363,419.4706 Q533.1363,419.9081 533.0269,420.3456 Q532.9331,420.7831 532.73,421.1737 Q532.5269,421.5487 532.2144,421.8612 Q531.9019,422.1737 531.5113,422.3769 Q531.1206,422.5644 530.6831,422.6425 Q530.2456,422.7206 529.8081,422.7206 Z " fill="#000000"/><text fill="#000000" font-family="sans-serif" font-size="14" lengthAdjust="spacing" textLength="26.0176" x="550.105" y="420.9267">Tag</text><line style="stroke:#A80036;stroke-width:1;" x1="447.48" x2="646.2476" y1="432.08" y2="432.08"/><rect fill="none" height="6" style="stroke:#C82930;stroke-width:1;" width="6" x="454.48" y="442.7284"/><text fill="#000000" font-family="sans-serif" font-size="14" lengthAdjust="spacing" textLength="13.0156" x="466.48" y="449.0751">Id</text><ellipse cx="457.48" cy="462.0253" fill="none" rx="3" ry="3" style="stroke:#038048;stroke-width:1;"/><text fill="#000000" font-family="sans-serif" font-size="14" lengthAdjust="spacing" textLength="41.3027" x="466.48" y="465.372">Name</text><ellipse cx="457.48" cy="478.3222" fill="none" rx="3" ry="3" style="stroke:#038048;stroke-width:1;"/><text fill="#000000" font-family="sans-serif" font-size="14" lengthAdjust="spacing" textLength="36.5518" x="466.48" y="481.6689">Color</text><line style="stroke:#A80036;stroke-width:1;" x1="447.48" x2="646.2476" y1="488.9706" y2="488.9706"/><ellipse cx="457.48" cy="502.6191" fill="#84BE84" rx="3" ry="3" style="stroke:#038048;stroke-width:1;"/><text fill="#000000" font-family="sans-serif" font-size="14" lengthAdjust="spacing" textLength="174.7676" x="466.48" y="505.9657">UpdateName(NewName)</text><ellipse cx="457.48" cy="518.9159" fill="#84BE84" rx="3" ry="3" style="stroke:#038048;stroke-width:1;"/><text fill="#000000" font-family="sans-serif" font-size="14" lengthAdjust="spacing" textLength="165.2656" x="466.48" y="522.2626">UpdateColor(NewColor)</text></g><!--class Catalog--><g class="entity" data-entity="Catalog" data-source-line="33" data-uid="ent0004" id="entity_Catalog"><rect fill="#FEFECE" filter="url(#f12lyy51v943j1)" height="129.4844" style="stroke:#A80036;stroke-width:1;" width="226.7783" x="39.96" y="128.08"/><ellipse cx="122.2168" cy="144.08" fill="#ADD1B2" rx="11" ry="11" style="stroke:#A80036;stroke-width:1;"/><path d="M122.42,150.7206 Q121.9512,150.7206 121.4825,150.6269 Q121.0293,150.5331 120.6231,150.2987 Q120.2168,150.0644 119.9043,149.705 Q119.5918,149.3456 119.4043,148.9237 Q119.2168,148.4862 119.1387,148.0175 Q119.0762,147.5487 119.0762,147.0956 L119.0762,141.5644 Q119.0762,141.1112 119.1387,140.6425 Q119.2168,140.1737 119.4043,139.7519 Q119.5918,139.33 119.9043,138.9706 Q120.2168,138.5956 120.6231,138.3769 Q121.0293,138.1425 121.4825,138.0487 Q121.9512,137.955 122.42,137.955 Q122.8575,137.955 123.295,138.0331 Q123.7325,138.0956 124.1231,138.2987 Q124.5137,138.4862 124.8262,138.8144 Q125.1387,139.1269 125.3418,139.5175 Q125.545,139.8925 125.6387,140.33 Q125.7481,140.7519 125.7481,141.1894 L125.7481,141.2987 L123.8575,141.2987 L123.8575,141.2519 Q123.8575,140.9394 123.7637,140.6425 Q123.6856,140.33 123.4981,140.08 Q123.3106,139.83 123.0137,139.705 Q122.7168,139.58 122.42,139.58 Q122.1856,139.58 121.9512,139.6581 Q121.7325,139.7206 121.5606,139.8769 Q121.3887,140.0175 121.2637,140.2206 Q121.1543,140.4237 121.0918,140.6581 Q121.0293,140.8769 120.9981,141.1112 Q120.9668,141.33 120.9668,141.5644 L120.9668,147.0956 Q120.9668,147.33 120.9981,147.5644 Q121.0293,147.7987 121.0918,148.0175 Q121.1543,148.2362 121.2637,148.4394 Q121.3887,148.6425 121.5606,148.7987 Q121.7325,148.955 121.9512,149.0175 Q122.1856,149.08 122.42,149.08 Q122.7168,149.08 123.0137,148.955 Q123.3106,148.83 123.4981,148.58 Q123.6856,148.33 123.7637,148.0331 Q123.8575,147.7206 123.8575,147.4237 L123.8575,147.3612 L125.7481,147.3612 L125.7481,147.4706 Q125.7481,147.9081 125.6387,148.3456 Q125.545,148.7831 125.3418,149.1737 Q125.1387,149.5487 124.8262,149.8612 Q124.5137,150.1737 124.1231,150.3769 Q123.7325,150.5644 123.295,150.6425 Q122.8575,150.7206 122.42,150.7206 Z " fill="#000000"/><text fill="#000000" font-family="sans-serif" font-size="14" lengthAdjust="spacing" textLength="53.7646" x="142.7168" y="148.9267">Catalog</text><line style="stroke:#A80036;stroke-width:1;" x1="40.96" x2="265.7383" y1="160.08" y2="160.08"/><rect fill="none" height="6" style="stroke:#C82930;stroke-width:1;" width="6" x="47.96" y="170.7284"/><text fill="#000000" font-family="sans-serif" font-size="14" lengthAdjust="spacing" textLength="13.0156" x="59.96" y="177.0751">Id</text><ellipse cx="50.96" cy="190.0253" fill="none" rx="3" ry="3" style="stroke:#038048;stroke-width:1;"/><text fill="#000000" font-family="sans-serif" font-size="14" lengthAdjust="spacing" textLength="73.5" x="59.96" y="193.372">ItemTypes</text><line style="stroke:#A80036;stroke-width:1;" x1="40.96" x2="265.7383" y1="200.6737" y2="200.6737"/><ellipse cx="50.96" cy="214.3222" fill="#84BE84" rx="3" ry="3" style="stroke:#038048;stroke-width:1;"/><text fill="#000000" font-family="sans-serif" font-size="14" lengthAdjust="spacing" textLength="170.6865" x="59.96" y="217.6689">AddItemType(ItemType)</text><ellipse cx="50.96" cy="230.6191" fill="#84BE84" rx="3" ry="3" style="stroke:#038048;stroke-width:1;"/><text fill="#000000" font-family="sans-serif" font-size="14" lengthAdjust="spacing" textLength="200.7783" x="59.96" y="233.9657">RemoveItemType(ItemType)</text><ellipse cx="50.96" cy="246.9159" fill="#84BE84" rx="3" ry="3" style="stroke:#038048;stroke-width:1;"/><text fill="#000000" font-family="sans-serif" font-size="14" lengthAdjust="spacing" textLength="162.2236" x="59.96" y="250.2626">QueryItemType(Query)</text></g><!--class ItemType--><g class="entity" data-entity="ItemType" data-source-line="42" data-uid="ent0005" id="entity_ItemType"><rect fill="#FEFECE" filter="url(#f12lyy51v943j1)" height="357.6406" style="stroke:#A80036;stroke-width:1;" width="374.3389" x="359.69" y="7"/><ellipse cx="509.5064" cy="23" fill="#ADD1B2" rx="11" ry="11" style="stroke:#A80036;stroke-width:1;"/><path d="M509.7095,29.6406 Q509.2408,29.6406 508.772,29.5469 Q508.3189,29.4531 507.9127,29.2188 Q507.5064,28.9844 507.1939,28.625 Q506.8814,28.2656 506.6939,27.8438 Q506.5064,27.4063 506.4283,26.9375 Q506.3658,26.4688 506.3658,26.0156 L506.3658,20.4844 Q506.3658,20.0313 506.4283,19.5625 Q506.5064,19.0938 506.6939,18.6719 Q506.8814,18.25 507.1939,17.8906 Q507.5064,17.5156 507.9127,17.2969 Q508.3189,17.0625 508.772,16.9688 Q509.2408,16.875 509.7095,16.875 Q510.147,16.875 510.5845,16.9531 Q511.022,17.0156 511.4127,17.2188 Q511.8033,17.4063 512.1158,17.7344 Q512.4283,18.0469 512.6314,18.4375 Q512.8345,18.8125 512.9283,19.25 Q513.0377,19.6719 513.0377,20.1094 L513.0377,20.2188 L511.147,20.2188 L511.147,20.1719 Q511.147,19.8594 511.0533,19.5625 Q510.9752,19.25 510.7877,19 Q510.6002,18.75 510.3033,18.625 Q510.0064,18.5 509.7095,18.5 Q509.4752,18.5 509.2408,18.5781 Q509.022,18.6406 508.8502,18.7969 Q508.6783,18.9375 508.5533,19.1406 Q508.4439,19.3438 508.3814,19.5781 Q508.3189,19.7969 508.2877,20.0313 Q508.2564,20.25 508.2564,20.4844 L508.2564,26.0156 Q508.2564,26.25 508.2877,26.4844 Q508.3189,26.7188 508.3814,26.9375 Q508.4439,27.1563 508.5533,27.3594 Q508.6783,27.5625 508.8502,27.7188 Q509.022,27.875 509.2408,27.9375 Q509.4752,28 509.7095,28 Q510.0064,28 510.3033,27.875 Q510.6002,27.75 510.7877,27.5 Q510.9752,27.25 511.0533,26.9531 Q511.147,26.6406 511.147,26.3438 L511.147,26.2813 L513.0377,26.2813 L513.0377,26.3906 Q513.0377,26.8281 512.9283,27.2656 Q512.8345,27.7031 512.6314,28.0938 Q512.4283,28.4688 512.1158,28.7813 Q511.8033,29.0938 511.4127,29.2969 Q511.022,29.4844 510.5845,29.5625 Q510.147,29.6406 509.7095,29.6406 Z " fill="#000000"/><text fill="#000000" font-family="sans-serif" font-size="14" lengthAdjust="spacing" textLength="66.2061" x="530.0064" y="27.8467">ItemType</text><line style="stroke:#A80036;stroke-width:1;" x1="360.69" x2="733.0289" y1="39" y2="39"/><rect fill="none" height="6" style="stroke:#C82930;stroke-width:1;" width="6" x="367.69" y="49.6484"/><text fill="#000000" font-family="sans-serif" font-size="14" lengthAdjust="spacing" textLength="13.0156" x="379.69" y="55.9951">Id</text><ellipse cx="370.69" cy="68.9453" fill="none" rx="3" ry="3" style="stroke:#038048;stroke-width:1;"/><text fill="#000000" font-family="sans-serif" font-size="14" lengthAdjust="spacing" textLength="41.3027" x="379.69" y="72.292">Name</text><ellipse cx="370.69" cy="85.2422" fill="none" rx="3" ry="3" style="stroke:#038048;stroke-width:1;"/><text fill="#000000" font-family="sans-serif" font-size="14" lengthAdjust="spacing" textLength="79.7344" x="379.69" y="88.5889">Description</text><ellipse cx="370.69" cy="101.5391" fill="none" rx="3" ry="3" style="stroke:#038048;stroke-width:1;"/><text fill="#000000" font-family="sans-serif" font-size="14" lengthAdjust="spacing" textLength="159.0107" x="379.69" y="104.8857">BaseMeasurementUnit</text><ellipse cx="370.69" cy="117.8359" fill="none" rx="3" ry="3" style="stroke:#038048;stroke-width:1;"/><text fill="#000000" font-family="sans-serif" font-size="14" lengthAdjust="spacing" textLength="227.6777" x="379.69" y="121.1826">DefaultDisplayMeasurementUnit</text><ellipse cx="370.69" cy="134.1328" fill="none" rx="3" ry="3" style="stroke:#038048;stroke-width:1;"/><text fill="#000000" font-family="sans-serif" font-size="14" lengthAdjust="spacing" textLength="111.6514" x="379.69" y="137.4795">DefaultQuantity</text><ellipse cx="370.69" cy="150.4297" fill="none" rx="3" ry="3" style="stroke:#038048;stroke-width:1;"/><text fill="#000000" font-family="sans-serif" font-size="14" lengthAdjust="spacing" textLength="124.0449" x="379.69" y="153.7764">ShortageTrashold</text><ellipse cx="370.69" cy="166.7266" fill="none" rx="3" ry="3" style="stroke:#038048;stroke-width:1;"/><text fill="#000000" font-family="sans-serif" font-size="14" lengthAdjust="spacing" textLength="90.0635" x="379.69" y="170.0732">PictureName</text><ellipse cx="370.69" cy="183.0234" fill="none" rx="3" ry="3" style="stroke:#038048;stroke-width:1;"/><text fill="#000000" font-family="sans-serif" font-size="14" lengthAdjust="spacing" textLength="97.1523" x="379.69" y="186.3701">PictureSource</text><ellipse cx="370.69" cy="199.3203" fill="none" rx="3" ry="3" style="stroke:#038048;stroke-width:1;"/><text fill="#000000" font-family="sans-serif" font-size="14" lengthAdjust="spacing" textLength="33.3115" x="379.69" y="202.667">Tags</text><line style="stroke:#A80036;stroke-width:1;" x1="360.69" x2="733.0289" y1="209.9688" y2="209.9688"/><ellipse cx="370.69" cy="223.6172" fill="#84BE84" rx="3" ry="3" style="stroke:#038048;stroke-width:1;"/><text fill="#000000" font-family="sans-serif" font-size="14" lengthAdjust="spacing" textLength="174.7676" x="379.69" y="226.9639">UpdateName(NewName)</text><ellipse cx="370.69" cy="239.9141" fill="#84BE84" rx="3" ry="3" style="stroke:#038048;stroke-width:1;"/><text fill="#000000" font-family="sans-serif" font-size="14" lengthAdjust="spacing" textLength="251.6309" x="379.69" y="243.2607">UpdateDescription(NewDescription)</text><ellipse cx="370.69" cy="256.2109" fill="#84BE84" rx="3" ry="3" style="stroke:#038048;stroke-width:1;"/><text fill="#000000" font-family="sans-serif" font-size="14" lengthAdjust="spacing" textLength="279.6719" x="379.69" y="259.5576">UpdateBaseMeasurementUnit(NewUnit)</text><ellipse cx="370.69" cy="272.5078" fill="#84BE84" rx="3" ry="3" style="stroke:#038048;stroke-width:1;"/><text fill="#000000" font-family="sans-serif" font-size="14" lengthAdjust="spacing" textLength="348.3389" x="379.69" y="275.8545">UpdateDefaultDisplayMeasurementUnit(NewUnit)</text><ellipse cx="370.69" cy="288.8047" fill="#84BE84" rx="3" ry="3" style="stroke:#038048;stroke-width:1;"/><text fill="#000000" font-family="sans-serif" font-size="14" lengthAdjust="spacing" textLength="264.3115" x="379.69" y="292.1514">UpdateDefaultQuantity(NewQuantity)</text><ellipse cx="370.69" cy="305.1016" fill="#84BE84" rx="3" ry="3" style="stroke:#038048;stroke-width:1;"/><text fill="#000000" font-family="sans-serif" font-size="14" lengthAdjust="spacing" textLength="276.6025" x="379.69" y="308.4482">UpdateShortageTrashold(NewTrashold)</text><ellipse cx="370.69" cy="321.3984" fill="#84BE84" rx="3" ry="3" style="stroke:#038048;stroke-width:1;"/><text fill="#000000" font-family="sans-serif" font-size="14" lengthAdjust="spacing" textLength="189.6836" x="379.69" y="324.7451">UpdatePicture(NewPicture)</text><ellipse cx="370.69" cy="337.6953" fill="#84BE84" rx="3" ry="3" style="stroke:#038048;stroke-width:1;"/><text fill="#000000" font-family="sans-serif" font-size="14" lengthAdjust="spacing" textLength="90.3096" x="379.69" y="341.042">AddTag(Tag)</text><ellipse cx="370.69" cy="353.9922" fill="#84BE84" rx="3" ry="3" style="stroke:#038048;stroke-width:1;"/><text fill="#000000" font-family="sans-serif" font-size="14" lengthAdjust="spacing" textLength="120.4014" x="379.69" y="357.3389">RemoveTag(Tag)</text></g><!--class Inventory--><g class="entity" data-entity="Inventory" data-source-line="65" data-uid="ent0006" id="entity_Inventory"><rect fill="#FEFECE" filter="url(#f12lyy51v943j1)" height="129.4844" style="stroke:#A80036;stroke-width:1;" width="158.1045" x="74.29" y="622.08"/><ellipse cx="115.9459" cy="638.08" fill="#ADD1B2" rx="11" ry="11" style="stroke:#A80036;stroke-width:1;"/><path d="M116.149,644.7206 Q115.6803,644.7206 115.2115,644.6269 Q114.7584,644.5331 114.3522,644.2987 Q113.9459,644.0644 113.6334,643.705 Q113.3209,643.3456 113.1334,642.9237 Q112.9459,642.4862 112.8678,642.0175 Q112.8053,641.5487 112.8053,641.0956 L112.8053,635.5644 Q112.8053,635.1112 112.8678,634.6425 Q112.9459,634.1737 113.1334,633.7519 Q113.3209,633.33 113.6334,632.9706 Q113.9459,632.5956 114.3522,632.3769 Q114.7584,632.1425 115.2115,632.0487 Q115.6803,631.955 116.149,631.955 Q116.5865,631.955 117.024,632.0331 Q117.4615,632.0956 117.8522,632.2987 Q118.2428,632.4862 118.5553,632.8144 Q118.8678,633.1269 119.0709,633.5175 Q119.274,633.8925 119.3678,634.33 Q119.4772,634.7519 119.4772,635.1894 L119.4772,635.2987 L117.5865,635.2987 L117.5865,635.2519 Q117.5865,634.9394 117.4928,634.6425 Q117.4147,634.33 117.2272,634.08 Q117.0397,633.83 116.7428,633.705 Q116.4459,633.58 116.149,633.58 Q115.9147,633.58 115.6803,633.6581 Q115.4615,633.7206 115.2897,633.8769 Q115.1178,634.0175 114.9928,634.2206 Q114.8834,634.4237 114.8209,634.6581 Q114.7584,634.8769 114.7272,635.1112 Q114.6959,635.33 114.6959,635.5644 L114.6959,641.0956 Q114.6959,641.33 114.7272,641.5644 Q114.7584,641.7987 114.8209,642.0175 Q114.8834,642.2362 114.9928,642.4394 Q115.1178,642.6425 115.2897,642.7987 Q115.4615,642.955 115.6803,643.0175 Q115.9147,643.08 116.149,643.08 Q116.4459,643.08 116.7428,642.955 Q117.0397,642.83 117.2272,642.58 Q117.4147,642.33 117.4928,642.0331 Q117.5865,641.7206 117.5865,641.4237 L117.5865,641.3612 L119.4772,641.3612 L119.4772,641.4706 Q119.4772,641.9081 119.3678,642.3456 Q119.274,642.7831 119.0709,643.1737 Q118.8678,643.5487 118.5553,643.8612 Q118.2428,644.1737 117.8522,644.3769 Q117.4615,644.5644 117.024,644.6425 Q116.5865,644.7206 116.149,644.7206 Z " fill="#000000"/><text fill="#000000" font-family="sans-serif" font-size="14" lengthAdjust="spacing" textLength="66.8691" x="135.8694" y="642.9267">Inventory</text><line style="stroke:#A80036;stroke-width:1;" x1="75.29" x2="231.3945" y1="654.08" y2="654.08"/><rect fill="none" height="6" style="stroke:#C82930;stroke-width:1;" width="6" x="82.29" y="664.7284"/><text fill="#000000" font-family="sans-serif" font-size="14" lengthAdjust="spacing" textLength="13.0156" x="94.29" y="671.0751">Id</text><ellipse cx="85.29" cy="684.0253" fill="none" rx="3" ry="3" style="stroke:#038048;stroke-width:1;"/><text fill="#000000" font-family="sans-serif" font-size="14" lengthAdjust="spacing" textLength="39.1631" x="94.29" y="687.372">Items</text><line style="stroke:#A80036;stroke-width:1;" x1="75.29" x2="231.3945" y1="694.6737" y2="694.6737"/><ellipse cx="85.29" cy="708.3222" fill="#84BE84" rx="3" ry="3" style="stroke:#038048;stroke-width:1;"/><text fill="#000000" font-family="sans-serif" font-size="14" lengthAdjust="spacing" textLength="102.0127" x="94.29" y="711.6689">AddItem(Item)</text><ellipse cx="85.29" cy="724.6191" fill="#84BE84" rx="3" ry="3" style="stroke:#038048;stroke-width:1;"/><text fill="#000000" font-family="sans-serif" font-size="14" lengthAdjust="spacing" textLength="132.1045" x="94.29" y="727.9657">RemoveItem(Item)</text><ellipse cx="85.29" cy="740.9159" fill="#84BE84" rx="3" ry="3" style="stroke:#038048;stroke-width:1;"/><text fill="#000000" font-family="sans-serif" font-size="14" lengthAdjust="spacing" textLength="127.8867" x="94.29" y="744.2626">QueryItem(Query)</text></g><!--class Item--><g class="entity" data-entity="Item" data-source-line="74" data-uid="ent0007" id="entity_Item"><rect fill="#FEFECE" filter="url(#f12lyy51v943j1)" height="292.4531" style="stroke:#A80036;stroke-width:1;" width="323.1855" x="385.27" y="564.6"/><ellipse cx="526.6782" cy="580.6" fill="#ADD1B2" rx="11" ry="11" style="stroke:#A80036;stroke-width:1;"/><path d="M526.8813,587.2406 Q526.4126,587.2406 525.9438,587.1469 Q525.4907,587.0531 525.0845,586.8187 Q524.6782,586.5844 524.3657,586.225 Q524.0532,585.8656 523.8657,585.4437 Q523.6782,585.0062 523.6001,584.5375 Q523.5376,584.0687 523.5376,583.6156 L523.5376,578.0844 Q523.5376,577.6312 523.6001,577.1625 Q523.6782,576.6937 523.8657,576.2719 Q524.0532,575.85 524.3657,575.4906 Q524.6782,575.1156 525.0845,574.8969 Q525.4907,574.6625 525.9438,574.5687 Q526.4126,574.475 526.8813,574.475 Q527.3188,574.475 527.7563,574.5531 Q528.1938,574.6156 528.5845,574.8187 Q528.9751,575.0062 529.2876,575.3344 Q529.6001,575.6469 529.8032,576.0375 Q530.0063,576.4125 530.1001,576.85 Q530.2095,577.2719 530.2095,577.7094 L530.2095,577.8187 L528.3188,577.8187 L528.3188,577.7719 Q528.3188,577.4594 528.2251,577.1625 Q528.147,576.85 527.9595,576.6 Q527.772,576.35 527.4751,576.225 Q527.1782,576.1 526.8813,576.1 Q526.647,576.1 526.4126,576.1781 Q526.1938,576.2406 526.022,576.3969 Q525.8501,576.5375 525.7251,576.7406 Q525.6157,576.9437 525.5532,577.1781 Q525.4907,577.3969 525.4595,577.6312 Q525.4282,577.85 525.4282,578.0844 L525.4282,583.6156 Q525.4282,583.85 525.4595,584.0844 Q525.4907,584.3187 525.5532,584.5375 Q525.6157,584.7562 525.7251,584.9594 Q525.8501,585.1625 526.022,585.3187 Q526.1938,585.475 526.4126,585.5375 Q526.647,585.6 526.8813,585.6 Q527.1782,585.6 527.4751,585.475 Q527.772,585.35 527.9595,585.1 Q528.147,584.85 528.2251,584.5531 Q528.3188,584.2406 528.3188,583.9437 L528.3188,583.8812 L530.2095,583.8812 L530.2095,583.9906 Q530.2095,584.4281 530.1001,584.8656 Q530.0063,585.3031 529.8032,585.6937 Q529.6001,586.0687 529.2876,586.3812 Q528.9751,586.6937 528.5845,586.8969 Q528.1938,587.0844 527.7563,587.1625 Q527.3188,587.2406 526.8813,587.2406 Z " fill="#000000"/><text fill="#000000" font-family="sans-serif" font-size="14" lengthAdjust="spacing" textLength="31.8691" x="547.1782" y="585.4467">Item</text><line style="stroke:#A80036;stroke-width:1;" x1="386.27" x2="707.4555" y1="596.6" y2="596.6"/><rect fill="none" height="6" style="stroke:#C82930;stroke-width:1;" width="6" x="393.27" y="607.2484"/><text fill="#000000" font-family="sans-serif" font-size="14" lengthAdjust="spacing" textLength="13.0156" x="405.27" y="613.5951">Id</text><ellipse cx="396.27" cy="626.5453" fill="none" rx="3" ry="3" style="stroke:#038048;stroke-width:1;"/><text fill="#000000" font-family="sans-serif" font-size="14" lengthAdjust="spacing" textLength="66.2061" x="405.27" y="629.892">ItemType</text><ellipse cx="396.27" cy="642.8422" fill="none" rx="3" ry="3" style="stroke:#038048;stroke-width:1;"/><text fill="#000000" font-family="sans-serif" font-size="14" lengthAdjust="spacing" textLength="79.7344" x="405.27" y="646.1889">Description</text><ellipse cx="396.27" cy="659.1391" fill="none" rx="3" ry="3" style="stroke:#038048;stroke-width:1;"/><text fill="#000000" font-family="sans-serif" font-size="14" lengthAdjust="spacing" textLength="60.498" x="405.27" y="662.4857">Quantity</text><ellipse cx="396.27" cy="675.4359" fill="none" rx="3" ry="3" style="stroke:#038048;stroke-width:1;"/><text fill="#000000" font-family="sans-serif" font-size="14" lengthAdjust="spacing" textLength="104.5215" x="405.27" y="678.7826">ExpirationDate</text><ellipse cx="396.27" cy="691.7328" fill="none" rx="3" ry="3" style="stroke:#038048;stroke-width:1;"/><text fill="#000000" font-family="sans-serif" font-size="14" lengthAdjust="spacing" textLength="176.5244" x="405.27" y="695.0795">DisplayMeasurementUnit</text><ellipse cx="396.27" cy="708.0297" fill="none" rx="3" ry="3" style="stroke:#038048;stroke-width:1;"/><text fill="#000000" font-family="sans-serif" font-size="14" lengthAdjust="spacing" textLength="98.5264" x="405.27" y="711.3764">PurchasePrice</text><ellipse cx="396.27" cy="724.3266" fill="none" rx="3" ry="3" style="stroke:#038048;stroke-width:1;"/><text fill="#000000" font-family="sans-serif" font-size="14" lengthAdjust="spacing" textLength="33.3115" x="405.27" y="727.6732">Tags</text><line style="stroke:#A80036;stroke-width:1;" x1="386.27" x2="707.4555" y1="734.975" y2="734.975"/><ellipse cx="396.27" cy="748.6234" fill="#84BE84" rx="3" ry="3" style="stroke:#038048;stroke-width:1;"/><text fill="#000000" font-family="sans-serif" font-size="14" lengthAdjust="spacing" textLength="251.6309" x="405.27" y="751.9701">UpdateDescription(NewDescription)</text><ellipse cx="396.27" cy="764.9203" fill="#84BE84" rx="3" ry="3" style="stroke:#038048;stroke-width:1;"/><text fill="#000000" font-family="sans-serif" font-size="14" lengthAdjust="spacing" textLength="213.1582" x="405.27" y="768.267">UpdateQuantity(NewQuantity)</text><ellipse cx="396.27" cy="781.2172" fill="#84BE84" rx="3" ry="3" style="stroke:#038048;stroke-width:1;"/><text fill="#000000" font-family="sans-serif" font-size="14" lengthAdjust="spacing" textLength="230.1455" x="405.27" y="784.5639">UpdateExpirationDate(NewDate)</text><ellipse cx="396.27" cy="797.5141" fill="#84BE84" rx="3" ry="3" style="stroke:#038048;stroke-width:1;"/><text fill="#000000" font-family="sans-serif" font-size="14" lengthAdjust="spacing" textLength="297.1855" x="405.27" y="800.8607">UpdateDisplayMeasurementUnit(NewUnit)</text><ellipse cx="396.27" cy="813.8109" fill="#84BE84" rx="3" ry="3" style="stroke:#038048;stroke-width:1;"/><text fill="#000000" font-family="sans-serif" font-size="14" lengthAdjust="spacing" textLength="258.6787" x="405.27" y="817.1576">UpdatePurchasePrice(PurchasePrice)</text><ellipse cx="396.27" cy="830.1078" fill="#84BE84" rx="3" ry="3" style="stroke:#038048;stroke-width:1;"/><text fill="#000000" font-family="sans-serif" font-size="14" lengthAdjust="spacing" textLength="90.3096" x="405.27" y="833.4545">AddTag(Tag)</text><ellipse cx="396.27" cy="846.4047" fill="#84BE84" rx="3" ry="3" style="stroke:#038048;stroke-width:1;"/><text fill="#000000" font-family="sans-serif" font-size="14" lengthAdjust="spacing" textLength="120.4014" x="405.27" y="849.7514">RemoveTag(Tag)</text></g><!--link Catalog to User--><g class="link" data-entity-1="Catalog" data-entity-2="User" data-source-line="93" data-uid="lnk9" id="link_Catalog_User"><path codeLine="93" d="M153.03,257.89 C153.03,270.6 153.03,272.36 153.03,286.43" fill="none" id="Catalog-to-User" style="stroke:#A80036;stroke-width:1;"/><polygon fill="#A80036" points="153.03,298.43,157.03,292.43,153.03,286.43,149.03,292.43,153.03,298.43" style="stroke:#A80036;stroke-width:1;"/></g><!--reverse link User to Inventory--><g class="link" data-entity-1="User" data-entity-2="Inventory" data-source-line="94" data-uid="lnk10" id="link_User_Inventory"><path codeLine="94" d="M153.03,587.35 C153.03,603.46 153.03,607.27 153.03,621.68" fill="none" id="User-backto-Inventory" style="stroke:#A80036;stroke-width:1;"/><polygon fill="#A80036" points="153.03,575.35,149.03,581.35,153.03,587.35,157.03,581.35,153.03,575.35" style="stroke:#A80036;stroke-width:1;"/></g><!--reverse link Catalog to ItemType--><g class="link" data-entity-1="Catalog" data-entity-2="ItemType" data-source-line="96" data-uid="lnk11" id="link_Catalog_ItemType"><path codeLine="96" d="M279.17,192.82 C308.11,192.82 327.98,192.82 359.53,192.82" fill="none" id="Catalog-backto-ItemType" style="stroke:#A80036;stroke-width:1;"/><polygon fill="#A80036" points="267.17,192.82,273.17,196.82,279.17,192.82,273.17,188.82,267.17,192.82" style="stroke:#A80036;stroke-width:1;"/></g><!--reverse link Inventory to Item--><g class="link" data-entity-1="Inventory" data-entity-2="Item" data-source-line="97" data-uid="lnk12" id="link_Inventory_Item"><path codeLine="97" d="M244.51,686.82 C288.27,686.82 332.3,686.82 384.9,686.82" fill="none" id="Inventory-backto-Item" style="stroke:#A80036;stroke-width:1;"/><polygon fill="#A80036" points="232.51,686.82,238.51,690.82,244.51,686.82,238.51,682.82,232.51,686.82" style="stroke:#A80036;stroke-width:1;"/></g><!--link ItemType to Tag--><g class="link" data-entity-1="ItemType" data-entity-2="Tag" data-source-line="99" data-uid="lnk13" id="link_ItemType_Tag"><path codeLine="99" d="M547.03,364.89 C547.03,377.09 547.03,388.85 547.03,399.76" fill="none" id="ItemType-Tag" style="stroke:#A80036;stroke-width:1;"/></g><!--link Tag to Item--><g class="link" data-entity-1="Tag" data-entity-2="Item" data-source-line="100" data-uid="lnk15" id="link_Tag_Item"><path codeLine="100" d="M547.03,529.78 C547.03,540.6 547.03,552.19 547.03,564.1" fill="none" id="Tag-Item" style="stroke:#A80036;stroke-width:1;"/></g><!--reverse link ItemType to Item--><g class="link" data-entity-1="ItemType" data-entity-2="Item" data-source-line="102" data-uid="lnk17" id="link_ItemType_Item"><path codeLine="102" d="M416.03,377.03 C416.03,441.94 416.03,502.42 416.03,564.19" fill="none" id="ItemType-backto-Item" style="stroke:#A80036;stroke-width:1;"/><polygon fill="#A80036" points="416.03,365.03,412.03,371.03,416.03,377.03,420.03,371.03,416.03,365.03" style="stroke:#A80036;stroke-width:1;"/></g><!--SRC=[bLNRRgCm47ttLrZQ5v8L7x4DUOYqsqtRv0EyC81LiD7Oj4NL_llQ5ZQO4hQD535pvdYOov5HprnGb0g8CbR7aBNq3ykVAvIzA0woaKY_7O_7k-n06YWrrP8YhsfD2uwGQox5x6J31UYX0ofHrvAGl65AqQi2fE-4cbzAJuKpljDxgNav_1R7juuZSudYG0Qii0aNyAL6KBLibdbEGlLboNCEGZ-2aZtceCX8UeIAAmsOx4RWfwouc7kory4zr4nKS3Qrlqei33pYMbPL0nyB3mTZWc_WHZWqSYE-sf3X_lLplR1gPQoizHDps_ErNxk2QR3Hv1vUxNCNHHpPXfmnUyk1QTR8bJUTDBGNi-mmv1z5uR746xkmW5Q-mCtmGmyuXAZpPYNum6Qt6QWSUJSJqXrJy0kOwX5QCyEhu3fmIzOtEkEgQzYmoNdecT1S3oFwL1jfimekoEOYFFDScnIpSaRaoQrjnCp2r6VtCMl74cPkp5jfqlBjSvbme-VD8tu4bkJjcBYSYcLwEsQEOx64qTnDwZ7pISm_ram09pc85rEsn65TaqizEh5zr6441_sjQk-szczgRo6RwQx8p13ygItvdOrkQhFRC_8D_NnM9VzVOLoXIsQU2pryGJjH_KdaVMNZxjknJvlKtqCUmNJI0I7-ajgdwRIRIISU9YHS9JQ1UOa3gCrldU3jfop_0000]--></g></svg>