<svg xmlns="http://www.w3.org/2000/svg" xmlns:xlink="http://www.w3.org/1999/xlink" contentStyleType="text/css" data-diagram-type="CLASS" height="362px" preserveAspectRatio="none" style="width:966px;height:362px;background:#EEEBDC;" version="1.1" viewBox="0 0 966 362" width="966px" zoomAndPan="magnify"><defs><filter height="300%" id="f34f96uehuppf" width="300%" x="-1" y="-1"><feGaussianBlur result="blurOut" stdDeviation="2"/><feColorMatrix in="blurOut" result="blurOut2" type="matrix" values="0 0 0 0 0 0 0 0 0 0 0 0 0 0 0 0 0 0 .4 0"/><feOffset dx="4" dy="4" in="blurOut2" result="blurOut3"/><feBlend in="SourceGraphic" in2="blurOut3" mode="normal"/></filter></defs><g><rect fill="#EEEBDC" height="362" style="stroke:none;stroke-width:1;" width="966" x="0" y="0"/><!--class User--><g class="entity" data-entity="User" data-source-line="5" data-uid="ent0002" id="entity_User"><rect fill="#FEFECE" filter="url(#f34f96uehuppf)" height="308.75" style="stroke:#A80036;stroke-width:1;" width="292.6904" x="7" y="23.29"/><ellipse cx="133.1401" cy="39.29" fill="#ADD1B2" rx="11" ry="11" style="stroke:#A80036;stroke-width:1;"/><path d="M133.3433,45.9306 Q132.8745,45.9306 132.4058,45.8369 Q131.9526,45.7431 131.5464,45.5087 Q131.1401,45.2744 130.8276,44.915 Q130.5151,44.5556 130.3276,44.1337 Q130.1401,43.6962 130.062,43.2275 Q129.9995,42.7587 129.9995,42.3056 L129.9995,36.7744 Q129.9995,36.3212 130.062,35.8525 Q130.1401,35.3837 130.3276,34.9619 Q130.5151,34.54 130.8276,34.1806 Q131.1401,33.8056 131.5464,33.5869 Q131.9526,33.3525 132.4058,33.2587 Q132.8745,33.165 133.3433,33.165 Q133.7808,33.165 134.2183,33.2431 Q134.6558,33.3056 135.0464,33.5087 Q135.437,33.6962 135.7495,34.0244 Q136.062,34.3369 136.2651,34.7275 Q136.4683,35.1025 136.562,35.54 Q136.6714,35.9619 136.6714,36.3994 L136.6714,36.5087 L134.7808,36.5087 L134.7808,36.4619 Q134.7808,36.1494 134.687,35.8525 Q134.6089,35.54 134.4214,35.29 Q134.2339,35.04 133.937,34.915 Q133.6401,34.79 133.3433,34.79 Q133.1089,34.79 132.8745,34.8681 Q132.6558,34.9306 132.4839,35.0869 Q132.312,35.2275 132.187,35.4306 Q132.0776,35.6337 132.0151,35.8681 Q131.9526,36.0869 131.9214,36.3212 Q131.8901,36.54 131.8901,36.7744 L131.8901,42.3056 Q131.8901,42.54 131.9214,42.7744 Q131.9526,43.0087 132.0151,43.2275 Q132.0776,43.4462 132.187,43.6494 Q132.312,43.8525 132.4839,44.0087 Q132.6558,44.165 132.8745,44.2275 Q133.1089,44.29 133.3433,44.29 Q133.6401,44.29 133.937,44.165 Q134.2339,44.04 134.4214,43.79 Q134.6089,43.54 134.687,43.2431 Q134.7808,42.9306 134.7808,42.6337 L134.7808,42.5712 L136.6714,42.5712 L136.6714,42.6806 Q136.6714,43.1181 136.562,43.5556 Q136.4683,43.9931 136.2651,44.3837 Q136.062,44.7587 135.7495,45.0712 Q135.437,45.3837 135.0464,45.5869 Q134.6558,45.7744 134.2183,45.8525 Q133.7808,45.9306 133.3433,45.9306 Z " fill="#000000"/><text fill="#000000" font-family="sans-serif" font-size="14" lengthAdjust="spacing" textLength="31.9102" x="153.6401" y="44.1367">User</text><line style="stroke:#A80036;stroke-width:1;" x1="8" x2="298.6904" y1="55.29" y2="55.29"/><rect fill="none" height="6" style="stroke:#C82930;stroke-width:1;" width="6" x="15" y="65.9384"/><text fill="#000000" font-family="sans-serif" font-size="14" lengthAdjust="spacing" textLength="13.0156" x="27" y="72.2851">Id</text><ellipse cx="18" cy="85.2353" fill="none" rx="3" ry="3" style="stroke:#038048;stroke-width:1;"/><text fill="#000000" font-family="sans-serif" font-size="14" lengthAdjust="spacing" textLength="38.8418" x="27" y="88.582">Email</text><ellipse cx="18" cy="101.5322" fill="none" rx="3" ry="3" style="stroke:#038048;stroke-width:1;"/><text fill="#000000" font-family="sans-serif" font-size="14" lengthAdjust="spacing" textLength="101.541" x="27" y="104.8789">PasswordHash</text><ellipse cx="18" cy="117.8291" fill="none" rx="3" ry="3" style="stroke:#038048;stroke-width:1;"/><text fill="#000000" font-family="sans-serif" font-size="14" lengthAdjust="spacing" textLength="132.583" x="27" y="121.1757">NotifyOnExpiration</text><ellipse cx="18" cy="134.1259" fill="none" rx="3" ry="3" style="stroke:#038048;stroke-width:1;"/><text fill="#000000" font-family="sans-serif" font-size="14" lengthAdjust="spacing" textLength="123.6484" x="27" y="137.4726">NotifyOnDeadline</text><ellipse cx="18" cy="150.4228" fill="none" rx="3" ry="3" style="stroke:#038048;stroke-width:1;"/><text fill="#000000" font-family="sans-serif" font-size="14" lengthAdjust="spacing" textLength="130.8262" x="27" y="153.7695">NotifyOnThreshold</text><ellipse cx="18" cy="166.7197" fill="none" rx="3" ry="3" style="stroke:#038048;stroke-width:1;"/><text fill="#000000" font-family="sans-serif" font-size="14" lengthAdjust="spacing" textLength="211.4355" x="27" y="170.0664">NotifyOnInsufficientResources</text><line style="stroke:#A80036;stroke-width:1;" x1="8" x2="298.6904" y1="177.3681" y2="177.3681"/><ellipse cx="18" cy="191.0166" fill="#84BE84" rx="3" ry="3" style="stroke:#038048;stroke-width:1;"/><text fill="#000000" font-family="sans-serif" font-size="14" lengthAdjust="spacing" textLength="69.1934" x="27" y="194.3632">Register()</text><ellipse cx="18" cy="207.3134" fill="#84BE84" rx="3" ry="3" style="stroke:#038048;stroke-width:1;"/><text fill="#000000" font-family="sans-serif" font-size="14" lengthAdjust="spacing" textLength="48.9385" x="27" y="210.6601">Login()</text><ellipse cx="18" cy="223.6103" fill="#84BE84" rx="3" ry="3" style="stroke:#038048;stroke-width:1;"/><text fill="#000000" font-family="sans-serif" font-size="14" lengthAdjust="spacing" textLength="59.1035" x="27" y="226.957">Logout()</text><ellipse cx="18" cy="239.9072" fill="#84BE84" rx="3" ry="3" style="stroke:#038048;stroke-width:1;"/><text fill="#000000" font-family="sans-serif" font-size="14" lengthAdjust="spacing" textLength="130.792" x="27" y="243.2539">ChangePassword()</text><text fill="#000000" font-family="sans-serif" font-size="14" lengthAdjust="spacing" textLength="4.4502" x="27" y="259.5507">&#160;</text><ellipse cx="18" cy="272.5009" fill="#84BE84" rx="3" ry="3" style="stroke:#038048;stroke-width:1;"/><text fill="#000000" font-family="sans-serif" font-size="14" lengthAdjust="spacing" textLength="187.8379" x="27" y="275.8476">toggleNotifyOnExpiration()</text><ellipse cx="18" cy="288.7978" fill="#84BE84" rx="3" ry="3" style="stroke:#038048;stroke-width:1;"/><text fill="#000000" font-family="sans-serif" font-size="14" lengthAdjust="spacing" textLength="178.9033" x="27" y="292.1445">toggleNotifyOnDeadline()</text><ellipse cx="18" cy="305.0947" fill="#84BE84" rx="3" ry="3" style="stroke:#038048;stroke-width:1;"/><text fill="#000000" font-family="sans-serif" font-size="14" lengthAdjust="spacing" textLength="186.0811" x="27" y="308.4414">toggleNotifyOnThreshold()</text><ellipse cx="18" cy="321.3916" fill="#84BE84" rx="3" ry="3" style="stroke:#038048;stroke-width:1;"/><text fill="#000000" font-family="sans-serif" font-size="14" lengthAdjust="spacing" textLength="266.6904" x="27" y="324.7382">toggleNotifyOnInsufficientResources()</text></g><!--class Catalog--><g class="entity" data-entity="Catalog" data-source-line="25" data-uid="ent0003" id="entity_Catalog"><rect fill="#FEFECE" filter="url(#f34f96uehuppf)" height="129.4844" style="stroke:#A80036;stroke-width:1;" width="226.7783" x="359.69" y="112.93"/><ellipse cx="441.9468" cy="128.93" fill="#ADD1B2" rx="11" ry="11" style="stroke:#A80036;stroke-width:1;"/><path d="M442.15,135.5706 Q441.6812,135.5706 441.2125,135.4769 Q440.7593,135.3831 440.3531,135.1487 Q439.9468,134.9144 439.6343,134.555 Q439.3218,134.1956 439.1343,133.7737 Q438.9468,133.3362 438.8687,132.8675 Q438.8062,132.3987 438.8062,131.9456 L438.8062,126.4144 Q438.8062,125.9612 438.8687,125.4925 Q438.9468,125.0237 439.1343,124.6019 Q439.3218,124.18 439.6343,123.8206 Q439.9468,123.4456 440.3531,123.2269 Q440.7593,122.9925 441.2125,122.8987 Q441.6812,122.805 442.15,122.805 Q442.5875,122.805 443.025,122.8831 Q443.4625,122.9456 443.8531,123.1487 Q444.2437,123.3362 444.5562,123.6644 Q444.8687,123.9769 445.0718,124.3675 Q445.275,124.7425 445.3687,125.18 Q445.4781,125.6019 445.4781,126.0394 L445.4781,126.1487 L443.5875,126.1487 L443.5875,126.1019 Q443.5875,125.7894 443.4937,125.4925 Q443.4156,125.18 443.2281,124.93 Q443.0406,124.68 442.7437,124.555 Q442.4468,124.43 442.15,124.43 Q441.9156,124.43 441.6812,124.5081 Q441.4625,124.5706 441.2906,124.7269 Q441.1187,124.8675 440.9937,125.0706 Q440.8843,125.2737 440.8218,125.5081 Q440.7593,125.7269 440.7281,125.9612 Q440.6968,126.18 440.6968,126.4144 L440.6968,131.9456 Q440.6968,132.18 440.7281,132.4144 Q440.7593,132.6487 440.8218,132.8675 Q440.8843,133.0862 440.9937,133.2894 Q441.1187,133.4925 441.2906,133.6487 Q441.4625,133.805 441.6812,133.8675 Q441.9156,133.93 442.15,133.93 Q442.4468,133.93 442.7437,133.805 Q443.0406,133.68 443.2281,133.43 Q443.4156,133.18 443.4937,132.8831 Q443.5875,132.5706 443.5875,132.2737 L443.5875,132.2112 L445.4781,132.2112 L445.4781,132.3206 Q445.4781,132.7581 445.3687,133.1956 Q445.275,133.6331 445.0718,134.0237 Q444.8687,134.3987 444.5562,134.7112 Q444.2437,135.0237 443.8531,135.2269 Q443.4625,135.4144 443.025,135.4925 Q442.5875,135.5706 442.15,135.5706 Z " fill="#000000"/><text fill="#000000" font-family="sans-serif" font-size="14" lengthAdjust="spacing" textLength="53.7646" x="462.4468" y="133.7767">Catalog</text><line style="stroke:#A80036;stroke-width:1;" x1="360.69" x2="585.4683" y1="144.93" y2="144.93"/><rect fill="none" height="6" style="stroke:#C82930;stroke-width:1;" width="6" x="367.69" y="155.5784"/><text fill="#000000" font-family="sans-serif" font-size="14" lengthAdjust="spacing" textLength="13.0156" x="379.69" y="161.9251">Id</text><ellipse cx="370.69" cy="174.8753" fill="none" rx="3" ry="3" style="stroke:#038048;stroke-width:1;"/><text fill="#000000" font-family="sans-serif" font-size="14" lengthAdjust="spacing" textLength="73.5" x="379.69" y="178.222">ItemTypes</text><line style="stroke:#A80036;stroke-width:1;" x1="360.69" x2="585.4683" y1="185.5237" y2="185.5237"/><ellipse cx="370.69" cy="199.1722" fill="#84BE84" rx="3" ry="3" style="stroke:#038048;stroke-width:1;"/><text fill="#000000" font-family="sans-serif" font-size="14" lengthAdjust="spacing" textLength="170.6865" x="379.69" y="202.5189">AddItemType(ItemType)</text><ellipse cx="370.69" cy="215.4691" fill="#84BE84" rx="3" ry="3" style="stroke:#038048;stroke-width:1;"/><text fill="#000000" font-family="sans-serif" font-size="14" lengthAdjust="spacing" textLength="200.7783" x="379.69" y="218.8157">RemoveItemType(ItemType)</text><ellipse cx="370.69" cy="231.7659" fill="#84BE84" rx="3" ry="3" style="stroke:#038048;stroke-width:1;"/><text fill="#000000" font-family="sans-serif" font-size="14" lengthAdjust="spacing" textLength="162.2236" x="379.69" y="235.1126">QueryItemType(Query)</text></g><!--class ItemType--><g class="entity" data-entity="ItemType" data-source-line="34" data-uid="ent0004" id="entity_ItemType"><rect fill="#FEFECE" filter="url(#f34f96uehuppf)" height="341.3438" style="stroke:#A80036;stroke-width:1;" width="305.6719" x="646.47" y="7"/><ellipse cx="761.9529" cy="23" fill="#ADD1B2" rx="11" ry="11" style="stroke:#A80036;stroke-width:1;"/><path d="M762.156,29.6406 Q761.6873,29.6406 761.2185,29.5469 Q760.7654,29.4531 760.3592,29.2188 Q759.9529,28.9844 759.6404,28.625 Q759.3279,28.2656 759.1404,27.8438 Q758.9529,27.4063 758.8748,26.9375 Q758.8123,26.4688 758.8123,26.0156 L758.8123,20.4844 Q758.8123,20.0313 758.8748,19.5625 Q758.9529,19.0938 759.1404,18.6719 Q759.3279,18.25 759.6404,17.8906 Q759.9529,17.5156 760.3592,17.2969 Q760.7654,17.0625 761.2185,16.9688 Q761.6873,16.875 762.156,16.875 Q762.5935,16.875 763.031,16.9531 Q763.4685,17.0156 763.8592,17.2188 Q764.2498,17.4063 764.5623,17.7344 Q764.8748,18.0469 765.0779,18.4375 Q765.281,18.8125 765.3748,19.25 Q765.4842,19.6719 765.4842,20.1094 L765.4842,20.2188 L763.5935,20.2188 L763.5935,20.1719 Q763.5935,19.8594 763.4998,19.5625 Q763.4217,19.25 763.2342,19 Q763.0467,18.75 762.7498,18.625 Q762.4529,18.5 762.156,18.5 Q761.9217,18.5 761.6873,18.5781 Q761.4685,18.6406 761.2967,18.7969 Q761.1248,18.9375 760.9998,19.1406 Q760.8904,19.3438 760.8279,19.5781 Q760.7654,19.7969 760.7342,20.0313 Q760.7029,20.25 760.7029,20.4844 L760.7029,26.0156 Q760.7029,26.25 760.7342,26.4844 Q760.7654,26.7188 760.8279,26.9375 Q760.8904,27.1563 760.9998,27.3594 Q761.1248,27.5625 761.2967,27.7188 Q761.4685,27.875 761.6873,27.9375 Q761.9217,28 762.156,28 Q762.4529,28 762.7498,27.875 Q763.0467,27.75 763.2342,27.5 Q763.4217,27.25 763.4998,26.9531 Q763.5935,26.6406 763.5935,26.3438 L763.5935,26.2813 L765.4842,26.2813 L765.4842,26.3906 Q765.4842,26.8281 765.3748,27.2656 Q765.281,27.7031 765.0779,28.0938 Q764.8748,28.4688 764.5623,28.7813 Q764.2498,29.0938 763.8592,29.2969 Q763.4685,29.4844 763.031,29.5625 Q762.5935,29.6406 762.156,29.6406 Z " fill="#000000"/><text fill="#000000" font-family="sans-serif" font-size="14" lengthAdjust="spacing" textLength="66.2061" x="782.4529" y="27.8467">ItemType</text><line style="stroke:#A80036;stroke-width:1;" x1="647.47" x2="951.1419" y1="39" y2="39"/><rect fill="none" height="6" style="stroke:#C82930;stroke-width:1;" width="6" x="654.47" y="49.6484"/><text fill="#000000" font-family="sans-serif" font-size="14" lengthAdjust="spacing" textLength="13.0156" x="666.47" y="55.9951">Id</text><ellipse cx="657.47" cy="68.9453" fill="none" rx="3" ry="3" style="stroke:#038048;stroke-width:1;"/><text fill="#000000" font-family="sans-serif" font-size="14" lengthAdjust="spacing" textLength="41.3027" x="666.47" y="72.292">Name</text><ellipse cx="657.47" cy="85.2422" fill="none" rx="3" ry="3" style="stroke:#038048;stroke-width:1;"/><text fill="#000000" font-family="sans-serif" font-size="14" lengthAdjust="spacing" textLength="79.7344" x="666.47" y="88.5889">Description</text><ellipse cx="657.47" cy="101.5391" fill="none" rx="3" ry="3" style="stroke:#038048;stroke-width:1;"/><text fill="#000000" font-family="sans-serif" font-size="14" lengthAdjust="spacing" textLength="63.9502" x="666.47" y="104.8857">Category</text><ellipse cx="657.47" cy="117.8359" fill="none" rx="3" ry="3" style="stroke:#038048;stroke-width:1;"/><text fill="#000000" font-family="sans-serif" font-size="14" lengthAdjust="spacing" textLength="159.0107" x="666.47" y="121.1826">BaseMeasurementUnit</text><ellipse cx="657.47" cy="134.1328" fill="none" rx="3" ry="3" style="stroke:#038048;stroke-width:1;"/><text fill="#000000" font-family="sans-serif" font-size="14" lengthAdjust="spacing" textLength="111.6514" x="666.47" y="137.4795">DefaultQuantity</text><ellipse cx="657.47" cy="150.4297" fill="none" rx="3" ry="3" style="stroke:#038048;stroke-width:1;"/><text fill="#000000" font-family="sans-serif" font-size="14" lengthAdjust="spacing" textLength="40.9814" x="666.47" y="153.7764">Width</text><ellipse cx="657.47" cy="166.7266" fill="none" rx="3" ry="3" style="stroke:#038048;stroke-width:1;"/><text fill="#000000" font-family="sans-serif" font-size="14" lengthAdjust="spacing" textLength="46.2793" x="666.47" y="170.0732">Height</text><ellipse cx="657.47" cy="183.0234" fill="none" rx="3" ry="3" style="stroke:#038048;stroke-width:1;"/><text fill="#000000" font-family="sans-serif" font-size="14" lengthAdjust="spacing" textLength="42.6426" x="666.47" y="186.3701">Depth</text><ellipse cx="657.47" cy="199.3203" fill="none" rx="3" ry="3" style="stroke:#038048;stroke-width:1;"/><text fill="#000000" font-family="sans-serif" font-size="14" lengthAdjust="spacing" textLength="90.0635" x="666.47" y="202.667">PictureName</text><ellipse cx="657.47" cy="215.6172" fill="none" rx="3" ry="3" style="stroke:#038048;stroke-width:1;"/><text fill="#000000" font-family="sans-serif" font-size="14" lengthAdjust="spacing" textLength="97.1523" x="666.47" y="218.9639">PictureSource</text><line style="stroke:#A80036;stroke-width:1;" x1="647.47" x2="951.1419" y1="226.2656" y2="226.2656"/><ellipse cx="657.47" cy="239.9141" fill="#84BE84" rx="3" ry="3" style="stroke:#038048;stroke-width:1;"/><text fill="#000000" font-family="sans-serif" font-size="14" lengthAdjust="spacing" textLength="174.7676" x="666.47" y="243.2607">UpdateName(NewName)</text><ellipse cx="657.47" cy="256.2109" fill="#84BE84" rx="3" ry="3" style="stroke:#038048;stroke-width:1;"/><text fill="#000000" font-family="sans-serif" font-size="14" lengthAdjust="spacing" textLength="251.6309" x="666.47" y="259.5576">UpdateDescription(NewDescription)</text><ellipse cx="657.47" cy="272.5078" fill="#84BE84" rx="3" ry="3" style="stroke:#038048;stroke-width:1;"/><text fill="#000000" font-family="sans-serif" font-size="14" lengthAdjust="spacing" textLength="220.0625" x="666.47" y="275.8545">UpdateCategory(NewCategory)</text><ellipse cx="657.47" cy="288.8047" fill="#84BE84" rx="3" ry="3" style="stroke:#038048;stroke-width:1;"/><text fill="#000000" font-family="sans-serif" font-size="14" lengthAdjust="spacing" textLength="279.6719" x="666.47" y="292.1514">UpdateBaseMeasurementUnit(NewUnit)</text><ellipse cx="657.47" cy="305.1016" fill="#84BE84" rx="3" ry="3" style="stroke:#038048;stroke-width:1;"/><text fill="#000000" font-family="sans-serif" font-size="14" lengthAdjust="spacing" textLength="264.3115" x="666.47" y="308.4482">UpdateDefaultQuantity(NewQuantity)</text><ellipse cx="657.47" cy="321.3984" fill="#84BE84" rx="3" ry="3" style="stroke:#038048;stroke-width:1;"/><text fill="#000000" font-family="sans-serif" font-size="14" lengthAdjust="spacing" textLength="255.582" x="666.47" y="324.7451">UpdateDimensions(NewDimensions)</text><ellipse cx="657.47" cy="337.6953" fill="#84BE84" rx="3" ry="3" style="stroke:#038048;stroke-width:1;"/><text fill="#000000" font-family="sans-serif" font-size="14" lengthAdjust="spacing" textLength="189.6836" x="666.47" y="341.042">UpdatePicture(NewPicture)</text></g><!--reverse link User to Catalog--><g class="link" data-entity-1="User" data-entity-2="Catalog" data-source-line="56" data-uid="lnk5" id="link_User_Catalog"><path codeLine="56" d="M311.73,177.67 C331.83,177.67 340.22,177.67 359.6,177.67" fill="none" id="User-backto-Catalog" style="stroke:#A80036;stroke-width:1;"/><polygon fill="#A80036" points="299.73,177.67,305.73,181.67,311.73,177.67,305.73,173.67,299.73,177.67" style="stroke:#A80036;stroke-width:1;"/></g><!--reverse link Catalog to ItemType--><g class="link" data-entity-1="Catalog" data-entity-2="ItemType" data-source-line="57" data-uid="lnk6" id="link_Catalog_ItemType"><path codeLine="57" d="M598.57,177.67 C617.77,177.67 626,177.67 646.04,177.67" fill="none" id="Catalog-backto-ItemType" style="stroke:#A80036;stroke-width:1;"/><polygon fill="none" points="586.57,177.67,592.57,181.67,598.57,177.67,592.57,173.67,586.57,177.67" style="stroke:#A80036;stroke-width:1;"/></g><!--SRC=[TLFRRjim37ttLmZOIz8X7x4c1XfWoteB-gnPj4nK5Ws9RXSC_VTAXgJPIUCNauT7yZaaxL_H2aSUAX-YGJhPYp-oUTMEHgksPCY9RtLTt-wsbO6M1PDmg3iM2XqqZ6IhgZ7IUt7quCI_IeHd8_Pg2hwBkfTeKdmVQE_ar9tqNO8EnDYUVjlwxu1EJjSj2pkGog25C_YvS-0xCkeCtri_jYqs29OVmTFe6l1L8Zs2Hi_WLki4_2IDTfxHo2NTTj9go9e3d70chGrS2Yy7buHiu4gv6BbI_z9Gu7xajcybIqFwilDxXlxvDFot_qEfZAroi2wjwUaDhfOVHd2dKfsocOHSkDHma7sUt0vyut2OZJWe1qtkbD9RwU4NI3yww8FPeqKkHriv6duOfMNap7z1nNcDxY3kPA4FfN2F3OSBPpeIyZHrChVcEAWW9h9M1tYFx_MYCXCV2RDqoSkM8Yd7IyONBYCvliy_kJ0TIJa-8sAuo0SfVf9MiYKhsOwK54u3d7xQcyqchr6Lrua2bkTQVG80]--></g></svg>